# xmcd
#
# Track frame offsets:
#	150
#	15262
#	27937
#	40398
#	54341
#	67728
#	76892
#	88532
#	99789
#	108976
#	121184
#	133385
#	144007
#	154546
#	168124
#	183278
#	198240
#	207540
#
# Disc length: 2932 seconds
#
# Revision: 0
# Processed by: cddbd v1.5.2PL0 Copyright (c) Steve Scherf et al.
# Submitted via: EasyCDDAExtractor 12.0.1.1
#
DISCID=d50b7212
DTITLE=Various Artist - Drive-Time Bluegrass
DYEAR=1900
DGENRE=
TTITLE0=Blue Highway - Long Long Road
TTITLE1=Ralph Stanley - Always been a Rambler
TTITLE2=Junior Sisk - Leaving Baker
TTITLE3=Steep canyon Rangers - A Ramblin man is a Ramblin Man
TTITLE4=Seldom Scene - My Litttle Georga Rose
TTITLE5=James Shelton - 8 More Miles to Louisville
TTITLE6=Country Gentleman - Fox on the Run
TTITLE7=Bill Harrel - Reno Bound
TTITLE8=Lonesome River Band - Sitting on Top of the World
TTITLE9=Larry Sparks - Roving Gambler
TTITLE10=Red Allen - Hello City Limits
TTITLE11=Bill Emerson - Sweet Dixie
TTITLE12=Mac Wiseman - My Little Home in Tennessee
TTITLE13=Dave Evans - Highway 52
TTITLE14=Larry Rice - Aunt Marys Spring
TTITLE15=David Davis - Milwaukee Blues
TTITLE16=Del McCoury - She Left Me Standing on the Mountain
TTITLE17=Larry Richardson - Nashville Jail
EXTD=
EXTT0=
EXTT1=
EXTT2=
EXTT3=
EXTT4=
EXTT5=
EXTT6=
EXTT7=
EXTT8=
EXTT9=
EXTT10=
EXTT11=
EXTT12=
EXTT13=
EXTT14=
EXTT15=
EXTT16=
EXTT17=
PLAYORDER=
